<svg xmlns="http://www.w3.org/2000/svg" width="22" height="22" viewBox="0 0 22 22">
    <path fill="#4A90E2" fill-rule="evenodd" stroke="#4A90E2" stroke-width=".2" d="M2.046 9.893c0-4.328 3.52-7.846 7.847-7.846s7.847 3.518 7.847 7.846-3.52 7.847-7.847 7.847-7.847-3.519-7.847-7.847m14.484 5.9a8.843 8.843 0 0 0 2.256-5.9C18.786 4.99 14.796 1 9.893 1 4.991 1 1 4.99 1 9.893c0 4.904 3.991 8.894 8.893 8.894 2.264 0 4.327-.86 5.897-2.256l4.317 4.316a.529.529 0 0 0 .74 0 .522.522 0 0 0 0-.739l-4.317-4.316z"/>
</svg>
