<?xml version="1.0" standalone="no"?><!DOCTYPE svg PUBLIC "-//W3C//DTD SVG 1.1//EN" "http://www.w3.org/Graphics/SVG/1.1/DTD/svg11.dtd"><svg class="icon" height="512" viewBox="0 0 1024 1024" version="1.1" xmlns="http://www.w3.org/2000/svg"><path d="M768 728.608v-19.68C756.192 598.656 645.92 512 512 512s-244.192 86.656-256 192.992v23.616a79.04 79.04 0 0 0 78.784 78.784h354.464a79.04 79.04 0 0 0 78.784-78.784zM512 1024C228.416 1024 0 795.584 0 512S228.416 0 512 0s512 228.416 512 512-228.416 512-512 512z m0-555.328c94.528 0 169.344-74.816 169.344-169.344S606.528 126.048 512 126.048s-169.344 78.784-169.344 173.28 74.816 169.344 169.344 169.344z" fill="#5D5D5D" /></svg>